<svg width="150" height="64" viewBox="0 0 150 64" fill="none" xmlns="http://www.w3.org/2000/svg">
<g clip-path="url(#clip0_12_1132)">
<path d="M72.9073 25.9072V6.50236H69.9451V14.016H59.7161V6.50236H56.7539V25.9072H59.7161V16.8896H69.9451V25.9072H72.9073ZM76.6195 25.9072H79.443V12.7872H76.6195V25.9072ZM78.0186 10.1888C78.5165 10.1888 78.9514 10.0096 79.3106 9.65756C79.6699 9.30556 79.8463 8.86396 79.8463 8.35836C79.8463 7.85276 79.6636 7.41116 79.3106 7.04636C78.9514 6.68156 78.5165 6.50236 78.0186 6.50236C77.5207 6.50236 77.0858 6.68796 76.7392 7.04636C76.3926 7.41116 76.2161 7.85276 76.2161 8.35836C76.2161 8.86396 76.3926 9.30556 76.7392 9.65756C77.0858 10.0096 77.5144 10.1888 78.0186 10.1888ZM85.985 16.992C86.9367 15.8336 88.1089 15.2512 89.4829 15.2512C90.5291 15.2512 91.3737 15.6544 91.9913 16.4544C92.4703 17.0624 92.7161 18.0416 92.7161 19.3472V25.9072H95.5396V19.4816C95.5396 17.472 95.1111 15.9104 94.2728 14.8352C93.0879 13.2928 91.4997 12.512 89.5648 12.512C88.1405 12.512 86.9115 12.96 85.9031 13.8432V12.7872H83.1552V25.9072H85.9787V16.992H85.985ZM98.9115 22.848C98.319 21.8048 98.0165 20.6272 98.0165 19.3472C98.0165 18.0672 98.319 16.8896 98.9241 15.8336C99.5228 14.7776 100.336 13.9456 101.344 13.3504C102.277 12.7936 103.342 12.512 104.508 12.512C105.958 12.512 107.243 12.9472 108.327 13.8112V12.7872H111.075V25.2224C111.075 27.04 110.817 28.4736 110.306 29.4912C109.777 30.5152 109.021 31.3152 108.063 31.8848C107.105 32.448 105.983 32.736 104.722 32.736C103.216 32.736 101.905 32.4288 100.821 31.8144C99.7371 31.2064 98.9367 30.4896 98.4451 29.6896L98.3884 29.5936L100.462 27.6352L100.55 27.7568C101.647 29.2416 103.014 29.9968 104.615 29.9968C105.977 29.9968 106.972 29.5232 107.571 28.5824C108.019 27.8784 108.252 26.7904 108.252 25.3504V24.928C107.218 25.7536 105.977 26.1696 104.565 26.1696C103.361 26.1696 102.271 25.8752 101.319 25.3056C100.317 24.7168 99.5102 23.8848 98.9178 22.8352L98.9115 22.848ZM100.846 19.3472C100.846 20.4736 101.237 21.4464 102.006 22.2464C102.775 23.0464 103.752 23.4496 104.911 23.4496C106.26 23.4496 107.388 22.8672 108.252 21.7088V16.992C107.369 15.8336 106.203 15.2512 104.779 15.2512C103.638 15.2512 102.693 15.6544 101.956 16.4544C101.218 17.2544 100.846 18.2272 100.846 19.3536V19.3472ZM115.474 24.224C114.195 22.9312 113.552 21.2864 113.552 19.3472C113.552 17.408 114.151 15.744 115.323 14.4576C116.502 13.1712 118.027 12.512 119.848 12.512C121.67 12.512 123.138 13.1712 124.311 14.4704C125.477 15.7632 126.069 17.408 126.069 19.3472C126.069 19.552 126.063 19.7376 126.044 19.9104L126.031 20.032H116.313C116.407 21.024 116.823 21.8688 117.535 22.5536C118.285 23.2704 119.199 23.6352 120.258 23.6352C121.594 23.6352 122.785 23.0592 123.794 21.9328L123.888 21.8304L125.741 23.6224L125.666 23.7184C125.136 24.4224 124.393 25.0176 123.466 25.4784C122.533 25.9392 121.449 26.176 120.233 26.176C118.355 26.176 116.76 25.5168 115.481 24.224H115.474ZM116.559 17.568H123.094C122.905 16.8704 122.521 16.2816 121.96 15.8144C121.348 15.3088 120.668 15.0528 119.93 15.0528C119.136 15.0528 118.418 15.3024 117.781 15.8016C117.189 16.2624 116.779 16.8576 116.559 17.568ZM86.0984 51.1872V31.7824H83.1363V39.296H72.9073V31.7824H69.9451V51.1872H72.9073V42.1696H83.1363V51.1872H86.0984ZM101.073 45.312H91.3547C91.4493 46.304 91.8652 47.1488 92.5774 47.8336C93.3274 48.5504 94.2413 48.9152 95.3001 48.9152C96.6363 48.9152 97.8274 48.3392 98.8358 47.2128L98.9304 47.1104L100.783 48.9024L100.708 48.9984C100.178 49.7024 99.4346 50.2976 98.5081 50.7584C97.5753 51.2192 96.4913 51.456 95.2749 51.456C93.3968 51.456 91.8022 50.7968 90.5228 49.504C89.2434 48.2112 88.6005 46.5664 88.6005 44.6272C88.6005 42.688 89.1993 41.024 90.3716 39.7376C91.5501 38.4512 93.0753 37.792 94.8968 37.792C96.7182 37.792 98.1867 38.4512 99.3589 39.7504C100.525 41.0432 101.117 42.688 101.117 44.6272C101.117 44.832 101.111 45.0176 101.092 45.1904L101.08 45.312H101.073ZM98.1426 42.8544C97.9535 42.1568 97.569 41.568 97.0081 41.1008C96.3968 40.5952 95.7161 40.3392 94.9787 40.3392C94.1846 40.3392 93.4661 40.5888 92.8295 41.088C92.2371 41.5488 91.8274 42.144 91.6068 42.8544H98.1426ZM113.388 38.0736H116.136V51.1936H113.388V50.176C112.348 51.0336 111.082 51.4624 109.619 51.4624C108.416 51.4624 107.325 51.168 106.374 50.5984C105.372 50.0096 104.565 49.1776 103.972 48.128C103.38 47.0848 103.077 45.9072 103.077 44.6272C103.077 43.3472 103.38 42.1696 103.985 41.1136C104.584 40.0576 105.397 39.2256 106.405 38.6304C107.338 38.0736 108.403 37.792 109.569 37.792C111.019 37.792 112.304 38.2272 113.388 39.0912V38.0672V38.0736ZM113.306 42.272C112.424 41.1136 111.258 40.5312 109.834 40.5312C108.693 40.5312 107.741 40.9344 107.01 41.7344C106.273 42.5344 105.901 43.5072 105.901 44.6336C105.901 45.76 106.292 46.7328 107.061 47.5328C107.83 48.3328 108.806 48.736 109.966 48.736C111.321 48.736 112.443 48.1536 113.306 46.9952V42.2784V42.272ZM119.685 51.1872H122.508V31.5072H119.685V51.1872ZM124.903 40.6656H128.13V46.4064C128.13 47.9488 128.483 49.1264 129.189 49.9136C130.09 50.944 131.325 51.4624 132.869 51.4624C133.67 51.4624 134.351 51.3664 134.905 51.1808L135.019 51.1424L134.451 48.5312L134.313 48.5696C133.947 48.672 133.493 48.7296 132.951 48.7296C132.189 48.7296 131.634 48.5184 131.3 48.096C131.073 47.8336 130.953 47.3088 130.953 46.5472V40.672H134.993V38.0736H130.953V34.5216H128.13V38.0736H124.903V40.672V40.6656ZM140.3 42.272C141.252 41.1136 142.43 40.5312 143.798 40.5312C144.844 40.5312 145.689 40.9344 146.306 41.7344C146.785 42.3424 147.031 43.3216 147.031 44.6272V51.1872H149.855V44.7616C149.855 42.752 149.426 41.1904 148.588 40.1152C147.397 38.5728 145.815 37.792 143.88 37.792C142.55 37.792 141.346 38.208 140.3 39.0336V31.5008H137.477V51.1808H140.3V42.2656V42.272ZM58.3611 49.0752C59.1993 52.0896 58.7833 55.232 57.8253 57.472C56.0732 61.5616 52.2476 64.0064 47.5963 64.0064H47.5585C46.569 64.0064 43.027 63.7696 39.1699 60.9088C34.8905 57.7344 31.6699 52.512 29.6026 45.3888C28.5564 41.792 27.8316 37.8176 27.4283 33.76C25.1531 33.7792 22.9346 33.9904 20.8295 34.3936C19.506 40.3904 16.6194 45.0496 13.8148 47.7696C11.8169 49.696 9.61735 51.0144 7.44928 51.5776C6.69298 51.776 5.96819 51.872 5.28122 51.872C3.78752 51.872 2.4892 51.4112 1.51861 50.5088C-1.92257 47.1488 1.82113 41.184 4.66987 38.8096C9.37155 34.8992 14.048 33.3888 17.0858 32.4928C17.5963 29.6448 17.672 26.6624 17.2938 23.7056C11.9052 21.472 6.76861 17.728 4.62575 12.8192C3.52911 10.3104 3.60474 7.94236 4.88416 6.28476C6.21399 4.56316 8.38836 3.91036 10.7014 4.54396C13.0585 5.19036 15.3463 7.13596 17.1363 10.0224C19.0585 13.1264 20.4136 17.1904 21.1573 22.1184C22.3674 22.5344 23.5459 22.8288 24.6426 23.0208C25.4934 23.1616 26.319 23.2576 27.1195 23.3088C27.277 19.4304 27.756 15.7184 28.5564 12.448C29.5207 8.51196 30.9451 5.43996 32.7917 3.30236C34.9787 0.774359 37.7014 -0.332841 40.651 0.102359C43.0711 0.460759 45.1258 1.91996 46.4367 4.21116C49.6573 10.2272 46.777 17.3376 42.819 21.056C39.5669 24.1024 35.319 25.5744 31.1026 25.9776C31.1026 26.7392 31.1026 27.5136 31.1279 28.2816C31.1531 29.248 31.2035 30.2144 31.2665 31.168C35.4073 31.5008 40.1783 32.4224 44.6972 34.4576C50.861 37.2288 56.4451 41.9456 58.3611 49.0816V49.0752ZM32.4703 13.4272C31.777 16.2624 31.3295 19.616 31.1657 23.1744C34.1089 22.7904 36.5354 21.7984 38.3694 20.5824C44.2119 16.7104 44.8358 9.65116 42.9451 6.25276C42.4661 5.41436 41.5774 4.36476 40.0711 4.14716C38.527 3.91676 34.6888 4.36476 32.4703 13.4272ZM16.6699 20.0832C15.9829 16.9216 14.9745 14.2336 13.714 12.1984C12.485 10.2144 10.9976 8.86396 9.64256 8.49276C9.2266 8.37756 8.47029 8.26876 8.06063 8.79996C7.44928 9.59356 7.94718 12.2432 10.1089 14.7328C12.0753 16.992 14.3505 18.7584 16.6699 20.0832ZM16.1152 36.2816C16.1909 36.0512 16.2665 35.8144 16.3421 35.5776C12.63 36.8384 9.4913 38.6176 6.70558 41.2672C4.63836 43.2384 2.96819 46.3744 4.22869 47.4624C4.94718 48.128 7.91567 47.7888 11.0228 44.7872C13.1594 42.7264 14.9619 39.7056 16.1152 36.2816ZM27.2014 31.0144C27.0942 29.3504 27.0501 27.6864 27.0564 26.0416C25.9913 25.9776 24.9577 25.856 23.9619 25.6768C23.1552 25.536 22.3295 25.3504 21.4913 25.1264C21.6489 27.36 21.5732 29.4912 21.3211 31.5008C23.2182 31.1936 25.1909 31.0336 27.2014 31.0144ZM54.5543 50.4128C53.2119 44.4992 48.9955 40.1664 43.8463 37.4592C39.9325 35.3984 35.4262 34.3296 31.4997 33.9392C31.8905 37.5872 32.5522 41.0816 33.4661 44.2304C37.8842 59.4368 46.5816 59.904 47.5585 59.904H47.5837C50.6279 59.904 53.0039 58.4256 54.1131 55.84C54.7938 54.2592 54.9325 52.3584 54.548 50.4128H54.5543Z" fill="#007B34"/>
</g>
<defs>
<clipPath id="clip0_12_1132">
<rect width="150" height="64" fill="white"/>
</clipPath>
</defs>
</svg>
